<svg xmlns="http://www.w3.org/2000/svg" xmlns:xlink="http://www.w3.org/1999/xlink" fill="none" version="1.1" width="1896.2410888671875" height="75.50140380859375" viewBox="0 0 1896.2410888671875 75.50140380859375"><defs><linearGradient x1="1" y1="0.5" x2="0" y2="0.5" id="master_svg0_1_1890"><stop offset="0%" stop-color="#2384DD" stop-opacity="1"/><stop offset="100%" stop-color="#2384DD" stop-opacity="0.3499999940395355"/></linearGradient><linearGradient x1="1" y1="0.5" x2="0" y2="0.5" id="master_svg1_1_1890"><stop offset="0%" stop-color="#2384DD" stop-opacity="1"/><stop offset="100%" stop-color="#2384DD" stop-opacity="0.3499999940395355"/></linearGradient><filter id="master_svg2_796_4051" filterUnits="objectBoundingBox" color-interpolation-filters="sRGB" x="-18.883729934692383" y="-18.883729934692383" width="555.4963417053223" height="48.78296756744385"><feFlood flood-opacity="0" result="BackgroundImageFix"/><feBlend mode="normal" in="SourceGraphic" in2="BackgroundImageFix" result="shape"/><feGaussianBlur stdDeviation="4.720932483673096" result="effect1_foregroundBlur"/></filter><linearGradient x1="2.220446049250313e-16" y1="0" x2="1" y2="1" id="master_svg3_1_1897"><stop offset="0%" stop-color="#2384DD" stop-opacity="0"/><stop offset="48.95833432674408%" stop-color="#67B6FF" stop-opacity="1"/><stop offset="100%" stop-color="#2384DD" stop-opacity="0"/></linearGradient><clipPath id="master_svg4_796_4047"><rect x="1373.26611328125" y="30.3900146484375" width="29.37468910217285" height="29.37468910217285" rx="0"/></clipPath><clipPath id="master_svg5_796_4040"><rect x="1567.8740234375" y="30.3900146484375" width="28.325592041015625" height="28.325592041015625" rx="0"/></clipPath></defs><g><g><g transform="matrix(-1,0,0,1,3630,0)"><path d="M2370.173,43.9292C2370.173,43.9292,2369.149,45.1562,2369.149,45.1562C2369.149,45.1562,2370.173,43.9292,2370.173,43.9292C2370.173,43.9292,2370.173,43.9292,2370.173,43.9292ZM1815,10.73006C1815,10.73006,2326.276,10.73006,2326.276,10.73006C2326.276,10.73006,2326.276,7.26994,2326.276,7.26994C2326.276,7.26994,1815,7.26994,1815,7.26994C1815,7.26994,1815,10.73006,1815,10.73006C1815,10.73006,1815,10.73006,1815,10.73006ZM2349.832,22.2979C2349.832,22.2979,2369.149,45.1562,2369.149,45.1562C2369.149,45.1562,2371.197,42.702,2371.197,42.702C2371.197,42.702,2351.881,19.8437,2351.881,19.8437C2351.881,19.8437,2349.832,22.2979,2349.832,22.2979C2349.832,22.2979,2349.832,22.2979,2349.832,22.2979ZM2394.754,57.7301C2394.754,57.7301,2788.003,57.7301,2788.003,57.7301C2788.003,57.7301,2788.003,54.2699,2788.003,54.2699C2788.003,54.2699,2394.754,54.2699,2394.754,54.2699C2394.754,54.2699,2394.754,57.7301,2394.754,57.7301C2394.754,57.7301,2394.754,57.7301,2394.754,57.7301ZM2369.149,45.1562C2375.9539999999997,53.2098,2385.159,57.7301,2394.754,57.7301C2394.754,57.7301,2394.754,54.2699,2394.754,54.2699C2385.927,54.2699,2377.458,50.1113,2371.197,42.702C2371.197,42.702,2369.149,45.1562,2369.149,45.1562C2369.149,45.1562,2369.149,45.1562,2369.149,45.1562ZM2326.276,10.73006C2335.103,10.73006,2343.571,14.8887,2349.832,22.2979C2349.832,22.2979,2351.881,19.8437,2351.881,19.8437C2345.075,11.79018,2335.87,7.26994,2326.276,7.26994C2326.276,7.26994,2326.276,10.73006,2326.276,10.73006C2326.276,10.73006,2326.276,10.73006,2326.276,10.73006Z" fill="url(#master_svg0_1_1890)" fill-opacity="1"/></g><g><path d="M637.721,21.083C637.721,21.083,636.742,22.299599999999998,636.742,22.299599999999998C636.742,22.299599999999998,637.721,21.083,637.721,21.083C637.721,21.083,637.721,21.083,637.721,21.083ZM105,10.72003C105,10.72003,614.25,10.72003,614.25,10.72003C614.25,10.72003,614.25,7.2799700000000005,614.25,7.2799700000000005C614.25,7.2799700000000005,105,7.2799700000000005,105,7.2799700000000005C105,7.2799700000000005,105,10.72003,105,10.72003C105,10.72003,105,10.72003,105,10.72003ZM636.742,22.299599999999998C636.742,22.299599999999998,655.118,45.1336,655.118,45.1336C655.118,45.1336,657.074,42.7004,657.074,42.7004C657.074,42.7004,638.698,19.8664,638.698,19.8664C638.698,19.8664,636.742,22.299599999999998,636.742,22.299599999999998C636.742,22.299599999999998,636.742,22.299599999999998,636.742,22.299599999999998ZM679.567,57.72C679.567,57.72,1054,57.72,1054,57.72C1054,57.72,1054,54.28,1054,54.28C1054,54.28,679.567,54.28,679.567,54.28C679.567,54.28,679.567,57.72,679.567,57.72C679.567,57.72,679.567,57.72,679.567,57.72ZM655.118,45.1336C661.603,53.1928,670.397,57.72,679.567,57.72C679.567,57.72,679.567,54.28,679.567,54.28C671.131,54.28,663.04,50.1149,657.074,42.7004C657.074,42.7004,655.118,45.1336,655.118,45.1336C655.118,45.1336,655.118,45.1336,655.118,45.1336ZM614.25,10.72003C622.685,10.72003,630.776,14.885110000000001,636.742,22.299599999999998C636.742,22.299599999999998,638.698,19.8664,638.698,19.8664C632.213,11.807220000000001,623.419,7.2799700000000005,614.25,7.2799700000000005C614.25,7.2799700000000005,614.25,10.72003,614.25,10.72003C614.25,10.72003,614.25,10.72003,614.25,10.72003Z" fill="url(#master_svg1_1_1890)" fill-opacity="1"/></g><g><g transform="matrix(-1,0,0,1,1197.0201416015625,0)"><path d="M630.2452708007812,23.046656608581543C630.2452708007812,23.046656608581543,637.8511708007812,23.046656608581543,637.8511708007812,23.046656608581543C637.8511708007812,23.046656608581543,606.1160208007813,55.830956608581545,606.1160208007813,55.830956608581545C606.1160208007813,55.830956608581545,598.5100708007812,55.830956608581545,598.5100708007812,55.830956608581545C598.5100708007812,55.830956608581545,630.2452708007812,23.046656608581543,630.2452708007812,23.046656608581543C630.2452708007812,23.046656608581543,630.2452708007812,23.046656608581543,630.2452708007812,23.046656608581543Z" fill="#2384DD" fill-opacity="0.8999999761581421"/></g><g transform="matrix(-1,0,0,1,1170.7930526733398,0)"><path d="M617.1317263366699,23.046656608581543C617.1317263366699,23.046656608581543,624.7376263366699,23.046656608581543,624.7376263366699,23.046656608581543C624.7376263366699,23.046656608581543,593.0024763366699,55.830956608581545,593.0024763366699,55.830956608581545C593.0024763366699,55.830956608581545,585.3965263366699,55.830956608581545,585.3965263366699,55.830956608581545C585.3965263366699,55.830956608581545,617.1317263366699,23.046656608581543,617.1317263366699,23.046656608581543C617.1317263366699,23.046656608581543,617.1317263366699,23.046656608581543,617.1317263366699,23.046656608581543Z" fill="#2384DD" fill-opacity="0.699999988079071"/></g><g transform="matrix(-1,0,0,1,1144.5640411376953,0)"><path d="M604.0172205688476,23.046656608581543C604.0172205688476,23.046656608581543,611.6231205688476,23.046656608581543,611.6231205688476,23.046656608581543C611.6231205688476,23.046656608581543,579.8879705688477,55.830956608581545,579.8879705688477,55.830956608581545C579.8879705688477,55.830956608581545,572.2820205688477,55.830956608581545,572.2820205688477,55.830956608581545C572.2820205688477,55.830956608581545,604.0172205688476,23.046656608581543,604.0172205688476,23.046656608581543C604.0172205688476,23.046656608581543,604.0172205688476,23.046656608581543,604.0172205688476,23.046656608581543Z" fill="#2384DD" fill-opacity="0.5"/></g></g><g transform="matrix(-1,0,0,1,2720.30908203125,0)"><g transform="matrix(-1,0,0,1,2851.4473876953125,0)"><path d="M1457.4588938476563,23.046525955200195C1457.4588938476563,23.046525955200195,1465.0647938476563,23.046525955200195,1465.0647938476563,23.046525955200195C1465.0647938476563,23.046525955200195,1433.3296438476561,55.8308259552002,1433.3296438476561,55.8308259552002C1433.3296438476561,55.8308259552002,1425.7236938476562,55.8308259552002,1425.7236938476562,55.8308259552002C1425.7236938476562,55.8308259552002,1457.4588938476563,23.046525955200195,1457.4588938476563,23.046525955200195C1457.4588938476563,23.046525955200195,1457.4588938476563,23.046525955200195,1457.4588938476563,23.046525955200195Z" fill="#2384DD" fill-opacity="0.8999999761581421"/></g><g transform="matrix(-1,0,0,1,2825.22029876709,0)"><path d="M1444.345349383545,23.046525955200195C1444.345349383545,23.046525955200195,1451.951249383545,23.046525955200195,1451.951249383545,23.046525955200195C1451.951249383545,23.046525955200195,1420.2160993835448,55.8308259552002,1420.2160993835448,55.8308259552002C1420.2160993835448,55.8308259552002,1412.610149383545,55.8308259552002,1412.610149383545,55.8308259552002C1412.610149383545,55.8308259552002,1444.345349383545,23.046525955200195,1444.345349383545,23.046525955200195C1444.345349383545,23.046525955200195,1444.345349383545,23.046525955200195,1444.345349383545,23.046525955200195Z" fill="#2384DD" fill-opacity="0.699999988079071"/></g><g transform="matrix(-1,0,0,1,2798.9912872314453,0)"><path d="M1431.2308436157227,23.046525955200195C1431.2308436157227,23.046525955200195,1438.8367436157228,23.046525955200195,1438.8367436157228,23.046525955200195C1438.8367436157228,23.046525955200195,1407.1015936157225,55.8308259552002,1407.1015936157225,55.8308259552002C1407.1015936157225,55.8308259552002,1399.4956436157227,55.8308259552002,1399.4956436157227,55.8308259552002C1399.4956436157227,55.8308259552002,1431.2308436157227,23.046525955200195,1431.2308436157227,23.046525955200195C1431.2308436157227,23.046525955200195,1431.2308436157227,23.046525955200195,1431.2308436157227,23.046525955200195Z" fill="#2384DD" fill-opacity="0.5"/></g></g><g filter="url(#master_svg2_796_4051)"><rect x="688.7310180664062" y="50.3231201171875" width="517.7288818359375" height="11.015507698059082" rx="0" fill="url(#master_svg3_1_1897)" fill-opacity="1"/></g></g><g clip-path="url(#master_svg4_796_4047)"><g></g></g><g clip-path="url(#master_svg5_796_4040)"><g></g></g><g><path d="M727.213046875,20.13Q728.582046875,25.014,732.559546875,29.824Q736.537046875,34.634,742.124046875,37.89L739.1640468749999,42.145Q734.576046875,39.259,730.765046875,34.856Q726.954046875,30.453,724.771046875,25.643Q722.773046875,30.231,719.054546875,34.5045Q715.336046875,38.778,710.045046875,42.293L707.085046875,38.186Q713.005046875,34.56,716.760546875,29.898Q720.516046875,25.236,721.663046875,20.13L708.787046875,20.13L708.787046875,15.542L722.107046875,15.542L722.107046875,8.105L726.880046875,8.105L726.880046875,15.542L740.422046875,15.542L740.422046875,20.13L727.213046875,20.13ZM722.958046875,32.414Q726.510046875,36.151,728.323046875,38.297L724.993046875,41.146Q723.550046875,39.37,721.589046875,37.224L719.887046875,35.263L722.958046875,32.414ZM758.663046875,13.359L755.777046875,21.277Q757.368046875,23.682,758.108046875,25.8465Q758.848046875,28.011,758.848046875,30.268Q758.848046875,33.043,757.756546875,34.6895Q756.665046875,36.336,754.297046875,36.41Q753.076046875,36.447,751.411046875,36.262L750.486046875,31.748Q751.559046875,31.97,752.632046875,31.97Q753.705046875,31.97,754.093546875,31.452Q754.482046875,30.934,754.482046875,29.269Q754.482046875,26.013,751.3370468749999,22.017L754.186046875,13.433L750.338046875,13.433L750.338046875,42.108L746.009046875,42.108L746.009046875,8.993L758.663046875,8.993L758.663046875,13.359ZM760.032046875,41.738L760.032046875,9.844L777.385046875,9.844L777.385046875,41.701L773.204046875,41.701L773.204046875,39.444L764.324046875,39.444L764.324046875,41.738L760.032046875,41.738ZM773.204046875,22.202L773.204046875,14.21L764.324046875,14.21L764.324046875,22.202L773.204046875,22.202ZM764.324046875,26.679L764.324046875,35.078L773.204046875,35.078L773.204046875,26.679L764.324046875,26.679ZM790.520046875,8.401L789.632046875,12.175L794.775046875,12.175L794.775046875,16.134L788.596046875,16.134Q787.264046875,20.796,786.080046875,23.608L788.448046875,23.608L788.448046875,18.243L791.889046875,18.243L791.889046875,23.608L794.590046875,23.608L794.590046875,27.604L791.889046875,27.604L791.889046875,31.119L793.4430468749999,30.86Q793.887046875,30.823,794.701046875,30.675L794.775046875,34.819L791.889046875,35.337L791.889046875,42.034L787.819046875,42.034L787.819046875,36.003Q784.378046875,36.521,782.084046875,36.817L781.677046875,32.451Q785.488046875,32.007,787.819046875,31.674L787.819046875,27.604L781.973046875,27.604L781.973046875,23.46Q783.157046875,20.685,784.489046875,16.134L782.158046875,16.134L782.158046875,12.175L785.525046875,12.175Q786.043046875,10.214,786.524046875,7.92L790.520046875,8.401ZM796.033046875,9.4L815.088046875,9.4L815.088046875,13.063L796.033046875,13.063L796.033046875,9.4ZM813.719046875,14.802L813.719046875,23.571L796.958046875,23.571L796.958046875,14.802L813.719046875,14.802ZM809.501046875,18.095L801.176046875,18.095L801.176046875,20.315L809.501046875,20.315L809.501046875,18.095ZM795.737046875,42.145L795.737046875,25.495L815.125046875,25.495L815.125046875,42.145L811.018046875,42.145L811.018046875,40.665L799.807046875,40.665L799.807046875,42.145L795.737046875,42.145ZM803.581046875,31.6L803.581046875,28.862L799.807046875,28.862L799.807046875,31.6L803.581046875,31.6ZM807.281046875,31.6L811.018046875,31.6L811.018046875,28.862L807.281046875,28.862L807.281046875,31.6ZM803.581046875,34.671L799.807046875,34.671L799.807046875,37.335L803.581046875,37.335L803.581046875,34.671ZM807.281046875,34.671L807.281046875,37.335L811.018046875,37.335L811.018046875,34.671L807.281046875,34.671ZM830.739046875,8.549Q830.406046875,9.77,829.925046875,11.25L835.364046875,11.25L835.364046875,37.52Q835.364046875,40.036,834.309046875,41.072Q833.2550468750001,42.108,830.776046875,42.108Q829.037046875,42.108,826.632046875,41.849L825.855046875,37.964Q828.186046875,38.297,829.666046875,38.297Q831.5530468750001,38.297,831.5530468750001,36.04L831.5530468750001,31.415L831.294046875,31.415Q827.705046875,36.78,820.527046875,41.368L818.085046875,37.816Q820.860046875,36.373,822.895046875,34.819Q824.930046875,33.265,826.447046875,31.415L818.603046875,31.415L818.603046875,27.752L821.008046875,27.752L821.008046875,11.25L825.300046875,11.25Q825.929046875,9.215,826.151046875,7.92L830.739046875,8.549ZM852.199046875,15.246L852.199046875,19.39L849.387046875,19.39L849.387046875,36.595Q849.387046875,39.481,848.258046875,40.7575Q847.1300468750001,42.034,844.392046875,42.034Q841.580046875,41.96,839.545046875,41.738L838.768046875,37.668Q841.802046875,38.038,843.282046875,38.038Q844.392046875,38.038,844.836046875,37.3905Q845.280046875,36.743,845.280046875,35.374L845.280046875,19.39L836.7700468749999,19.39L836.7700468749999,15.246L845.280046875,15.246L845.280046875,8.401L849.387046875,8.401L849.387046875,15.246L852.199046875,15.246ZM824.856046875,17.096L831.5530468750001,17.096L831.5530468750001,14.913L824.856046875,14.913L824.856046875,17.096ZM824.856046875,22.609L831.5530468750001,22.609L831.5530468750001,20.056L824.856046875,20.056L824.856046875,22.609ZM840.766046875,31.896L839.397046875,29.417Q837.2510468749999,25.495,836.215046875,23.756L839.508046875,21.647Q840.544046875,23.275,841.857046875,25.495Q843.171046875,27.715,844.244046875,29.602L840.766046875,31.896ZM831.5530468750001,25.532L824.856046875,25.532L824.856046875,27.752L831.5530468750001,27.752L831.5530468750001,25.532ZM889.421046875,9.548L889.421046875,13.84L885.277046875,13.84L885.277046875,36.114Q885.277046875,38.556,884.7220468749999,39.74Q884.167046875,40.924,882.761046875,41.368Q881.355046875,41.812,878.506046875,41.812Q876.397046875,41.812,874.362046875,41.59L873.474046875,37.261Q876.1010468750001,37.594,878.543046875,37.594Q879.949046875,37.594,880.411046875,37.039Q880.874046875,36.484,880.874046875,34.856L880.874046875,13.84L855.936046875,13.84L855.936046875,9.548L889.421046875,9.548ZM859.451046875,17.873L875.916046875,17.873L875.916046875,33.931L859.451046875,33.931L859.451046875,17.873ZM863.669046875,29.787L871.661046875,29.787L871.661046875,22.054L863.669046875,22.054L863.669046875,29.787ZM904.036046875,30.231Q902.963046875,29.158,901.113046875,27.493L901.113046875,41.886L896.969046875,41.886L896.969046875,29.047Q895.526046875,30.601,893.861046875,32.155L891.974046875,27.678Q894.675046875,25.458,896.618046875,22.8865Q898.560046875,20.315,900.188046875,17.207L893.084046875,17.207L893.084046875,12.878L897.598046875,12.878Q897.228046875,11.768,896.044046875,8.586L900.114046875,7.476L900.558046875,8.66Q901.927046875,12.582,902.038046875,12.878L904.739046875,12.878L904.739046875,17.207Q903.481046875,20.019,901.742046875,22.794L902.889046875,23.719Q905.6640468749999,25.939,906.441046875,26.605L906.441046875,8.882L924.682046875,8.882L924.682046875,30.49L920.5010468749999,30.49L920.5010468749999,13.137L910.622046875,13.137L910.622046875,30.564L906.441046875,30.564L906.441046875,27.16L904.036046875,30.231ZM926.9760468750001,33.265L926.754046875,37.261Q926.680046875,39,926.2550468750001,39.888Q925.829046875,40.776,924.867046875,41.146Q923.905046875,41.516,922.092046875,41.627Q920.908046875,41.701,920.279046875,41.701Q919.687046875,41.701,918.429046875,41.627Q916.246046875,41.516,915.321046875,40.5725Q914.396046875,39.629,914.396046875,37.261L914.396046875,34.449Q912.990046875,36.595,910.788046875,38.556Q908.5870468749999,40.517,905.442046875,42.478L902.6300468750001,38.741Q906.885046875,36.336,909.031046875,34.2085Q911.177046875,32.081,912.065046875,29.417Q912.953046875,26.753,913.175046875,22.387Q913.286046875,20.278,913.286046875,15.246L917.615046875,15.246L917.578046875,18.835L917.504046875,22.609Q917.430046875,25.902,916.949046875,28.122L918.614046875,28.122L918.614046875,35.596Q918.614046875,36.706,918.836046875,37.039Q919.058046875,37.372,919.761046875,37.446L920.723046875,37.483Q921.759046875,37.483,922.148046875,37.3905Q922.536046875,37.298,922.702046875,36.9465Q922.869046875,36.595,922.906046875,35.67Q922.9430468749999,34.634,922.9430468749999,32.34L926.9760468750001,33.265ZM942.368046875,9.437Q940.9620468749999,13.951,938.890046875,17.984L938.890046875,41.886L934.302046875,41.886L934.302046875,25.421Q932.970046875,27.308,930.935046875,29.676L929.1590468750001,24.755Q931.823046875,21.462,934.2840468750001,16.8185Q936.744046875,12.175,938.002046875,8.031L942.368046875,9.437ZM963.4950468750001,29.935Q963.4950468750001,31.304,963.403046875,33.302Q963.310046875,35.3,963.199046875,36.373Q963.0140468750001,39,961.812046875,40.2025Q960.609046875,41.405,957.834046875,41.59Q956.243046875,41.701,954.578046875,41.701Q952.950046875,41.701,951.285046875,41.59Q949.361046875,41.442,948.214046875,40.8685Q947.067046875,40.295,946.5490468749999,39.037Q946.031046875,37.779,946.031046875,35.633L946.031046875,30.49Q944.440046875,31.6,941.739046875,33.228L939.371046875,29.01Q942.886046875,26.938,946.031046875,24.644L946.031046875,8.253L950.730046875,8.253L950.730046875,20.944Q955.429046875,16.874,959.4620468749999,12.249L962.829046875,15.69Q956.872046875,22.239,950.730046875,27.086L950.730046875,34.56Q950.730046875,35.892,951.081046875,36.41Q951.433046875,36.928,952.3950468749999,37.039Q953.579046875,37.15,954.689046875,37.15Q955.873046875,37.15,956.983046875,37.039Q958.056046875,36.928,958.482046875,36.41Q958.907046875,35.892,958.981046875,34.708L959.092046875,30.786L959.129046875,28.899L963.4950468750001,29.935ZM988.951046875,16.356Q987.249046875,20.648,985.103046875,24.163L981.181046875,21.24Q982.994046875,18.502,984.548046875,14.7835Q986.102046875,11.065,986.9530468749999,7.513L991.356046875,8.549Q991.060046875,9.881,990.431046875,12.064L1000.0880468749999,12.064L1000.0880468749999,16.356L988.951046875,16.356ZM976.593046875,8.068L980.848046875,8.068L980.848046875,25.717L976.593046875,25.717L976.593046875,8.068ZM969.156046875,9.289L973.3370468749999,9.289L973.3370468749999,24.792L969.156046875,24.792L969.156046875,9.289ZM991.948046875,16.985Q994.797046875,19.538,997.868046875,23.053L994.390046875,26.05Q991.0970468749999,22.165,988.729046875,19.871L991.948046875,16.985ZM997.017046875,27.012L997.017046875,37.076L1000.421046875,37.076L1000.421046875,41.146L966.825046875,41.146L966.825046875,37.076L970.1550468749999,37.076L970.1550468749999,27.012L997.017046875,27.012ZM977.9620468749999,31.045L974.373046875,31.045L974.373046875,37.076L977.9620468749999,37.076L977.9620468749999,31.045ZM981.8470468749999,37.076L985.436046875,37.076L985.436046875,31.045L981.8470468749999,31.045L981.8470468749999,37.076ZM989.210046875,37.076L992.873046875,37.076L992.873046875,31.045L989.210046875,31.045L989.210046875,37.076ZM1019.513046875,15.727L1019.513046875,19.538L1015.369046875,19.538L1015.369046875,11.546L1023.805046875,11.546L1022.843046875,8.401L1027.394046875,7.698Q1027.653046875,8.364,1028.615046875,11.546L1037.014046875,11.546L1037.014046875,19.538L1032.944046875,19.538L1032.944046875,15.727L1019.513046875,15.727ZM1011.7060468750001,8.142L1011.7060468750001,14.136L1014.407046875,14.136L1014.407046875,18.502L1011.7060468750001,18.502L1011.7060468750001,22.72Q1013.556046875,22.054,1014.3700468750001,21.721L1014.3700468750001,25.976L1011.7060468750001,27.086L1011.7060468750001,37.557Q1011.7060468750001,39.333,1011.2990468749999,40.3135Q1010.892046875,41.294,1009.893046875,41.738Q1008.894046875,42.182,1007.118046875,42.182Q1005.9340468749999,42.182,1004.454046875,41.923L1003.640046875,37.779Q1005.194046875,38.149,1006.119046875,38.149Q1006.933046875,38.149,1007.266046875,37.668Q1007.599046875,37.187,1007.599046875,36.225L1007.599046875,28.788L1004.306046875,30.194L1003.233046875,25.865L1005.8600468750001,24.903L1007.599046875,24.274L1007.599046875,18.502L1004.084046875,18.502L1004.084046875,14.136L1007.599046875,14.136L1007.599046875,8.142L1011.7060468750001,8.142ZM1028.911046875,17.392Q1031.020046875,18.798,1037.939046875,23.83L1035.534046875,27.382Q1034.054046875,26.124,1031.297046875,24.126Q1028.5410468750001,22.128,1026.543046875,20.759L1028.911046875,17.392ZM1028.171046875,31.267L1028.171046875,36.854L1037.162046875,36.854L1037.162046875,41.109L1014.481046875,41.109L1014.481046875,36.854L1023.694046875,36.854L1023.694046875,31.267L1016.997046875,31.267L1016.997046875,27.234L1014.814046875,23.719Q1018.699046875,21.314,1022.510046875,17.503L1025.248046875,20.5Q1021.881046875,23.83,1017.330046875,27.086L1034.905046875,27.086L1034.905046875,31.267L1028.171046875,31.267ZM1059.9540468750001,21.166Q1061.360046875,26.642,1064.856046875,30.5455Q1068.353046875,34.449,1074.717046875,37.742L1071.831046875,42.071Q1061.693046875,36.077,1057.845046875,27.9Q1055.884046875,32.081,1052.239046875,35.596Q1048.595046875,39.111,1043.563046875,42.293L1040.640046875,37.853Q1046.560046875,34.671,1050.371046875,30.5085Q1054.182046875,26.346,1054.996046875,21.166L1041.787046875,21.166L1041.787046875,16.615L1055.181046875,16.615L1055.181046875,7.957L1059.9540468750001,7.957L1059.9540468750001,16.615L1073.422046875,16.615L1073.422046875,21.166L1059.9540468750001,21.166ZM1111.0510468749999,30.527L1111.0510468749999,34.449L1104.9830468750001,34.449L1104.9830468750001,41.886L1100.6170468750001,41.886L1100.6170468750001,34.449L1094.7340468749999,34.449Q1094.179046875,37.039,1092.810046875,38.815Q1091.441046875,40.591,1088.703046875,42.404L1085.669046875,39.37Q1087.741046875,37.89,1088.777046875,36.817Q1089.813046875,35.744,1090.257046875,34.449L1085.410046875,34.449L1085.410046875,30.527L1090.812046875,30.527L1090.812046875,29.232L1090.812046875,27.197L1086.4830468750001,27.197L1086.4830468750001,23.275L1091.811046875,23.275Q1091.1080468750001,22.276,1089.739046875,20.537L1093.106046875,19.094L1085.2620468750001,19.094L1085.2620468750001,22.128Q1085.2620468750001,29.158,1084.282046875,33.8385Q1083.3010468749999,38.519,1081.340046875,42.071L1077.048046875,39.629Q1078.491046875,37.187,1079.249046875,34.9115Q1080.008046875,32.636,1080.360046875,29.4355Q1080.711046875,26.235,1080.711046875,21.203L1080.711046875,9.104L1109.941046875,9.104L1109.941046875,19.094L1103.133046875,19.094L1106.389046875,20.389Q1105.316046875,22.091,1104.465046875,23.275L1110.015046875,23.275L1110.015046875,27.197L1104.9830468750001,27.197L1104.9830468750001,30.527L1111.0510468749999,30.527ZM1105.390046875,12.989L1085.2620468750001,12.989L1085.2620468750001,15.32L1105.390046875,15.32L1105.390046875,12.989ZM1093.883046875,19.094Q1095.363046875,20.981,1096.251046875,22.498L1094.956046875,23.275L1099.729046875,23.275Q1101.357046875,20.537,1102.097046875,19.094L1093.883046875,19.094ZM1100.6170468750001,30.527L1100.6170468750001,27.197L1095.141046875,27.197L1095.141046875,29.047Q1095.141046875,30.046,1095.104046875,30.527L1100.6170468750001,30.527ZM1133.9170468749999,26.235L1148.162046875,26.235L1148.162046875,30.675L1133.9170468749999,30.675L1133.9170468749999,42.182L1129.3290468750001,42.182L1129.3290468750001,30.675L1115.010046875,30.675L1115.010046875,26.235L1129.3290468750001,26.235L1129.3290468750001,13.544L1116.527046875,13.544L1116.527046875,9.141L1146.682046875,9.141L1146.682046875,13.544L1133.9170468749999,13.544L1133.9170468749999,26.235ZM1136.211046875,22.424Q1137.543046875,21.018,1139.153046875,18.8165Q1140.7620468750001,16.615,1141.872046875,14.876L1145.461046875,17.207Q1144.462046875,18.724,1142.741046875,21.0365Q1141.0210468750001,23.349,1139.7630468749999,24.829L1136.211046875,22.424ZM1121.2630468749999,14.95Q1122.558046875,16.504,1124.241046875,18.724Q1125.9250468750001,20.944,1127.035046875,22.572L1123.4830468750001,24.977Q1122.410046875,23.275,1120.745046875,21.055Q1119.0800468749999,18.835,1117.822046875,17.318L1121.2630468749999,14.95ZM1175.5420468749999,11.028Q1177.910046875,13.544,1180.722046875,16.7075Q1183.534046875,19.871,1185.236046875,22.054L1181.943046875,24.681Q1181.1660468750001,23.645,1179.797046875,21.98Q1176.319046875,22.239,1168.660046875,22.683L1157.338046875,23.423Q1156.154046875,23.497,1153.860046875,23.793L1152.6760468749999,19.279Q1153.971046875,19.02,1154.6000468749999,18.798Q1155.229046875,18.576,1155.8210468749999,18.132Q1157.671046875,16.763,1160.613046875,13.3035Q1163.554046875,9.844,1165.3670468750001,6.958L1169.400046875,9.252Q1167.661046875,11.768,1165.404046875,14.4875Q1163.147046875,17.207,1161.334046875,19.02L1176.430046875,17.984Q1173.766046875,14.95,1172.397046875,13.47L1175.5420468749999,11.028ZM1160.076046875,42.071L1155.525046875,42.071L1155.525046875,25.569L1181.647046875,25.569L1181.647046875,42.071L1177.096046875,42.071L1177.096046875,40.48L1160.076046875,40.48L1160.076046875,42.071ZM1177.096046875,36.151L1177.096046875,29.935L1160.076046875,29.935L1160.076046875,36.151L1177.096046875,36.151Z" fill="#2384DD" fill-opacity="1"/></g></g></svg>